#!OML:ASF H:\Pregnant\Project 1\Capture day 1\Session 1\femalepreg.ASF
:FULLY-SPECIFIED
:DEGREES
129
root 3.6552 10.3781 9.11239 72.8955 -4.83813 0.796439
lowerback -3.96484 -0.864119 6.18546
upperback -11.4063 -1.04303 1.2335
thorax -10.029 -1.05865 -2.06375
lowerneck -60.5733 2.13211 2.58378
upperneck 1.55041 -0.0192243 2.55314
head 7.20226 0.326538 0.712269
rclavicle -1.64991e-014 4.53229e-014
rhumerus -32.8351 27.6697 -93.7518
rradius 107.652
rwrist -31.5423
rhand -21.8984 -27.4327
rfingers 7.12502
rthumb 4.50692 -57.3647
lclavicle -1.64991e-014 4.53229e-014
lhumerus -28.1442 -25.4905 87.3151
lradius 106.599
lwrist 62.5452
lhand -51.6204 15.9158
lfingers 7.12502
lthumb -24.1435 44.4164
rfemur -160.216 -12.0479 47.6044
rtibia 96.4348
rfoot -10.7529 12.5232
rtoes -0.595368
lfemur -152.245 12.6658 -33.8456
ltibia 90.8199
lfoot -10.321 -8.25066
ltoes -19.1364
130
root 3.65555 10.4615 9.14821 72.9147 -4.90318 0.759676
lowerback -4.0503 -0.845224 6.21508
upperback -11.422 -1.02478 1.21407
thorax -9.99661 -1.05322 -2.10327
lowerneck -60.4569 2.00811 2.45454
upperneck 1.55069 -0.0837507 2.6288
head 7.20035 0.306806 0.748266
rclavicle -2.50469e-014 2.31584e-014
rhumerus -32.8602 27.4562 -93.8494
rradius 107.502
rwrist -31.4485
rhand -21.8981 -27.333
rfingers 7.12502
rthumb 4.50714 -57.265
lclavicle -2.50469e-014 2.31584e-014
lhumerus -28.1006 -25.5595 87.369
lradius 106.354
lwrist 62.3468
lhand -51.399 16.5456
lfingers 7.12502
lthumb -23.9313 45.0743
rfemur -159.35 -12.1294 47.3848
rtibia 95.7612
rfoot -10.9176 12.4174
rtoes -0.927814
lfemur -151.365 12.7424 -33.6108
ltibia 90.1518
lfoot -10.4872 -8.01179
ltoes -19.3974
131
root 3.65525 10.5482 9.18439 72.9317 -4.96682 0.730858
lowerback -4.15599 -0.825616 6.2374
upperback -11.4405 -1.00734 1.1931
thorax -9.95535 -1.04748 -2.14066
lowerneck -60.3345 1.89197 2.33633
upperneck 1.53635 -0.145089 2.69681
head 7.19246 0.287053 0.780006
rclavicle 2.36554e-014 5.36719e-015
rhumerus -32.8806 27.2481 -93.9452
rradius 107.352
rwrist -31.3044
rhand -21.8319 -27.2901
rfingers 7.12502
rthumb 4.57111 -57.2208
lclavicle 2.36554e-014 5.36719e-015
lhumerus -28.0721 -25.6271 87.4162
lradius 106.12
lwrist 62.1872
lhand -51.1589 16.5417
lfingers 7.12502
lthumb -23.701 45.1004
rfemur -158.454 -12.2177 47.1349
rtibia 95.0555
rfoot -11.0798 12.2774
rtoes -1.32099
lfemur -150.445 12.8095 -33.3694
ltibia 89.4343
lfoot -10.6373 -7.76974
ltoes -19.6652
132
root 3.65414 10.6382 9.22086 72.9445 -5.03684 0.709534
lowerback -4.27485 -0.805695 6.24098
upperback -11.4632 -0.990787 1.17081
thorax -9.91029 -1.04052 -2.16915
lowerneck -60.1907 1.79682 2.25081
upperneck 1.49675 -0.196978 2.72897
head 7.17354 0.265489 0.793745
rclavicle 8.94531e-016 -2.60408e-014
rhumerus -32.9092 27.0515 -94.0398
rradius 107.213
rwrist -31.1318
rhand -21.7414 -27.2363
rfingers 7.12502
rthumb 4.65845 -57.1651
lclavicle 8.94531e-016 -2.60408e-014
lhumerus -28.0569 -25.6886 87.4584
lradius 105.891
lwrist 62.0578
lhand -50.9093 16.0771
lfingers 7.12502
lthumb -23.4616 44.6667
rfemur -157.523 -12.3101 46.8424
rtibia 94.3172
rfoot -11.238 12.0969
rtoes -1.79453
lfemur -149.484 12.8703 -33.1286
ltibia 88.6682
lfoot -10.772 -7.52399
ltoes -19.9363
133
root 3.65225 10.7317 9.25751 72.9452 -5.11699 0.696809
lowerback -4.39556 -0.787861 6.22038
upperback -11.4883 -0.977498 1.14805
thorax -9.86617 -1.03308 -2.18452
lowerneck -60.0297 1.7211 2.18728
upperneck 1.43546 -0.235544 2.73472
head 7.14514 0.245511 0.795618
rclavicle 1.66979e-014 -2.46493e-014
rhumerus -32.9402 26.8698 -94.1306
rradius 107.079
rwrist -30.9557
rhand -21.6369 -27.1862
rfingers 7.12502
rthumb 4.75938 -57.1127
lclavicle 1.66979e-014 -2.46493e-014
lhumerus -28.0557 -25.741 87.4958
lradius 105.665
lwrist 61.9544
lhand -50.6629 15.5091
lfingers 7.12502
lthumb -23.2252 44.1286
rfemur -156.549 -12.4109 46.4987
rtibia 93.5438
rfoot -11.3899 11.8742
rtoes -2.31929
lfemur -148.47 12.9258 -32.8894
ltibia 87.8517
lfoot -10.8909 -7.27334
ltoes -20.2138
134
root 3.64972 10.8289 9.29427 72.9284 -5.19433 0.690826
lowerback -4.51603 -0.772576 6.1906
upperback -11.5133 -0.967525 1.12769
thorax -9.8219 -1.0263 -2.19203
lowerneck -59.866 1.66042 2.14096
upperneck 1.37052 -0.265786 2.72618
head 7.11492 0.227204 0.790736
rclavicle -1.90833e-014 -1.40143e-014
rhumerus -32.9776 26.7047 -94.219
rradius 106.957
rwrist -30.7931
rhand -21.5438 -27.0848
rfingers 7.12502
rthumb 4.84926 -57.0094
lclavicle -1.90833e-014 -1.40143e-014
lhumerus -28.0654 -25.7759 87.5299
lradius 105.437
lwrist 61.8445
lhand -50.3865 14.9693
lfingers 7.12502
lthumb -22.96 43.6221
rfemur -155.527 -12.5245 46.1175
rtibia 92.7372
rfoot -11.5417 11.6096
rtoes -2.94357
lfemur -147.402 12.9745 -32.6359
ltibia 86.9846
lfoot -10.9903 -7.01689
ltoes -20.499
135
root 3.64656 10.9296 9.33099 72.8952 -5.27139 0.686833
lowerback -4.63891 -0.759743 6.15035
upperback -11.5374 -0.960917 1.11058
thorax -9.77502 -1.01999 -2.19014
lowerneck -59.7131 1.60376 2.08639
upperneck 1.31646 -0.289248 2.73463
head 7.08937 0.215091 0.795406
rclavicle 2.88238e-015 -2.20651e-014
rhumerus -33.0237 26.5623 -94.3081
rradius 106.844
rwrist -30.655
rhand -21.4541 -27.001
rfingers 7.12502
rthumb 4.93589 -56.9236
lclavicle 2.88238e-015 -2.20651e-014
lhumerus -28.0881 -25.794 87.5652
lradius 105.211
lwrist 61.7399
lhand -50.1012 14.541
lfingers 7.12502
lthumb -22.6862 43.2275
rfemur -154.455 -12.644 45.697
rtibia 91.8953
rfoot -11.6853 11.3053
rtoes -3.62744
lfemur -146.285 13.0213 -32.3691
ltibia 86.0691
lfoot -11.0687 -6.75227
ltoes -20.7996
136
root 3.64286 11.0335 9.36762 72.848 -5.34534 0.679293
lowerback -4.76773 -0.748265 6.10402
upperback -11.5598 -0.956189 1.09941
thorax -9.72256 -1.01357 -2.17857
lowerneck -59.5587 1.56169 2.04709
upperneck 1.26261 -0.304621 2.73419
head 7.0636 0.205444 0.795792
rclavicle 4.96962e-015 1.55052e-014
rhumerus -33.0761 26.4484 -94.3965
rradius 106.737
rwrist -30.5513
rhand -21.3794 -26.9791
rfingers 7.12502
rthumb 5.00799 -56.8999
lclavicle 4.96962e-015 1.55052e-014
lhumerus -28.1266 -25.7935 87.6067
lradius 104.988
lwrist 61.6435
lhand -49.8219 14.2208
lfingers 7.12502
lthumb -22.4181 42.9399
rfemur -153.335 -12.763 45.2437
rtibia 91.0188
rfoot -11.8205 10.9639
rtoes -4.36541
lfemur -145.128 13.0699 -32.0883
ltibia 85.1081
lfoot -11.1228 -6.48168
ltoes -21.1146
137
root 3.6388 11.1401 9.40413 72.789 -5.41374 0.668904
lowerback -4.90846 -0.737408 6.05775
upperback -11.5794 -0.952883 1.09257
thorax -9.65999 -1.00734 -2.16262
lowerneck -59.4054 1.52054 2.00423
upperneck 1.21024 -0.319377 2.74909
head 7.03857 0.198559 0.803152
rclavicle 2.08724e-015 -1.46107e-014
rhumerus -33.1311 26.3627 -94.485
rradius 106.627
rwrist -30.4789
rhand -21.3205 -27.0087
rfingers 7.12502
rthumb 5.0649 -56.9282
lclavicle 2.08724e-015 -1.46107e-014
lhumerus -28.1769 -25.7811 87.6522
lradius 104.768
lwrist 61.5598
lhand -49.5683 13.9735
lfingers 7.12502
lthumb -22.1747 42.7217
rfemur -152.171 -12.8808 44.7626
rtibia 90.1078
rfoot -11.9424 10.588
rtoes -5.14864
lfemur -143.936 13.1168 -31.792
ltibia 84.1041
lfoot -11.152 -6.20027
ltoes -21.4634
